<svg width="16" height="16" viewBox="0 0 16 16" fill="none" xmlns="http://www.w3.org/2000/svg">
<path d="M11.9703 2.15198L13.7603 8.48531C13.7884 8.58447 13.793 8.68877 13.774 8.79003C13.7549 8.89129 13.7126 8.98675 13.6504 9.06892C13.5883 9.15108 13.5079 9.21772 13.4156 9.2636C13.3233 9.30947 13.2217 9.33333 13.1187 9.33331H9.29167C9.23681 9.33331 9.18266 9.34569 9.13325 9.36952C9.08383 9.39335 9.04044 9.42802 9.00628 9.47095C8.97213 9.51389 8.9481 9.56397 8.93599 9.61747C8.92388 9.67098 8.924 9.72653 8.93633 9.77998L9.103 10.5013C9.25567 11.163 9.30467 11.8446 9.24833 12.5213L9.21767 12.889C9.18481 13.2834 9.01321 13.6534 8.73333 13.9333C8.47733 14.1894 8.13009 14.3333 7.768 14.3333H7.688C7.469 14.3333 7.26733 14.2146 7.16133 14.0233L6.275 12.4283C5.87766 11.713 5.28535 11.1252 4.567 10.7333L2.34733 9.52331C2.2421 9.46589 2.1543 9.38115 2.09317 9.27802C2.03205 9.1749 1.99986 9.05719 2 8.93731V2.33331C2 2.1565 2.07024 1.98693 2.19526 1.86191C2.32029 1.73688 2.48986 1.66665 2.66667 1.66665H11.329C11.4742 1.66669 11.6153 1.71411 11.7311 1.80171C11.8469 1.8893 11.9308 2.01229 11.9703 2.15198Z" stroke="#EA1919" stroke-width="1.5" stroke-linecap="round" stroke-linejoin="round"/>
</svg>
