<svg width="125" height="31" viewBox="0 0 125 31" fill="none" xmlns="http://www.w3.org/2000/svg">
<rect x="0.5" y="0.5" width="124" height="30" rx="4.5" stroke="#EA1919"/>
<path d="M21.26 21V11.2H22.996L26.118 17.01L29.24 11.2H30.92V21H29.24V14.14L26.65 18.97H25.53L22.94 14.14V21H21.26ZM36.3816 21.154C35.7003 21.154 35.0843 21.014 34.5336 20.734C33.983 20.4447 33.5443 20.02 33.2176 19.46C32.9003 18.8907 32.7416 18.1907 32.7416 17.36V17.08C32.7416 16.296 32.9003 15.6333 33.2176 15.092C33.5443 14.5413 33.983 14.126 34.5336 13.846C35.0843 13.566 35.7003 13.426 36.3816 13.426C37.0723 13.426 37.6883 13.566 38.2296 13.846C38.7803 14.126 39.2143 14.5413 39.5316 15.092C39.8583 15.6333 40.0216 16.296 40.0216 17.08V17.36C40.0216 18.1907 39.8583 18.8907 39.5316 19.46C39.2143 20.02 38.7803 20.4447 38.2296 20.734C37.6883 21.014 37.0723 21.154 36.3816 21.154ZM36.3816 19.81C36.7363 19.81 37.0723 19.726 37.3896 19.558C37.707 19.39 37.9636 19.1287 38.1596 18.774C38.3556 18.41 38.4536 17.9387 38.4536 17.36V17.08C38.4536 16.548 38.3556 16.114 38.1596 15.778C37.9636 15.4327 37.707 15.1807 37.3896 15.022C37.0723 14.854 36.7363 14.77 36.3816 14.77C36.027 14.77 35.691 14.854 35.3736 15.022C35.0563 15.1807 34.7996 15.4327 34.6036 15.778C34.4076 16.114 34.3096 16.548 34.3096 17.08V17.36C34.3096 17.9387 34.4076 18.41 34.6036 18.774C34.7996 19.1287 35.0563 19.39 35.3736 19.558C35.691 19.726 36.027 19.81 36.3816 19.81ZM41.5562 21V13.58H43.0962V19.684H45.5462V13.58H47.0862V19.684H49.5362V13.58H51.0762V21H41.5562ZM56.2605 21.154C55.6072 21.154 55.0052 21.0187 54.4545 20.748C53.9039 20.468 53.4605 20.048 53.1245 19.488C52.7885 18.928 52.6205 18.2187 52.6205 17.36V17.08C52.6205 16.2587 52.7792 15.5773 53.0965 15.036C53.4232 14.4947 53.8525 14.0933 54.3845 13.832C54.9165 13.5613 55.4952 13.426 56.1205 13.426C57.2499 13.426 58.1132 13.7293 58.7105 14.336C59.3172 14.9427 59.6205 15.8107 59.6205 16.94V17.724H54.1885C54.2072 18.228 54.3145 18.634 54.5105 18.942C54.7065 19.25 54.9585 19.474 55.2665 19.614C55.5745 19.7447 55.9059 19.81 56.2605 19.81C56.7925 19.81 57.1799 19.726 57.4225 19.558C57.6745 19.39 57.8472 19.1707 57.9405 18.9H59.4805C59.3312 19.6373 58.9625 20.1973 58.3745 20.58C57.7959 20.9627 57.0912 21.154 56.2605 21.154ZM56.1905 14.77C55.8452 14.77 55.5232 14.8307 55.2245 14.952C54.9259 15.0733 54.6832 15.2647 54.4965 15.526C54.3099 15.7873 54.2072 16.1373 54.1885 16.576H58.0805C58.0712 16.1093 57.9825 15.7453 57.8145 15.484C57.6465 15.2227 57.4225 15.0407 57.1425 14.938C56.8625 14.826 56.5452 14.77 56.1905 14.77ZM61.1616 21V13.58H62.7016V16.562H66.2016V13.58H67.7416V21H66.2016V17.878H62.7016V21H61.1616ZM69.7066 21V13.58H71.2466V16.562H74.7466V13.58H76.2866V21H74.7466V17.878H71.2466V21H69.7066ZM78.2515 21V13.58H79.7915V18.83L83.3615 13.58H84.8315V21H83.2915V15.75L79.7215 21H78.2515ZM86.7964 21V13.58H88.3364V16.59H89.1764L91.7804 13.58H93.5164L90.3664 17.122L93.6564 21H91.7804L89.1764 17.85H88.3364V21H86.7964ZM94.9175 21V13.58H96.4575V18.83L100.028 13.58H101.498V21H99.9575V15.75L96.3875 21H94.9175Z" fill="#EA1919"/>
</svg>
