<svg width="20" height="20" viewBox="0 0 20 20" fill="none" xmlns="http://www.w3.org/2000/svg">
<g id="iconamoon:eye-fill">
<path id="Vector" d="M1.35653 9.87858L1.3566 9.8784C2.73437 6.34896 5.96296 3.83325 10 3.83325C14.037 3.83325 17.2656 6.34896 18.6434 9.87841L18.6435 9.87858C18.674 9.9566 18.674 10.0432 18.6435 10.1213L18.6434 10.1214C17.2656 13.6509 14.037 16.1666 10 16.1666C5.96296 16.1666 2.73437 13.6509 1.3566 10.1214L1.35653 10.1213C1.32604 10.0432 1.32604 9.9566 1.35653 9.87858ZM10 12.9999C10.7956 12.9999 11.5587 12.6838 12.1213 12.1212C12.6839 11.5586 13 10.7956 13 9.99992C13 9.20427 12.6839 8.44121 12.1213 7.8786C11.5587 7.31599 10.7956 6.99992 10 6.99992C9.20435 6.99992 8.44129 7.31599 7.87868 7.8786C7.31607 8.44121 7 9.20427 7 9.99992C7 10.7956 7.31607 11.5586 7.87868 12.1212C8.44129 12.6838 9.20435 12.9999 10 12.9999Z" stroke="#ABABAB"/>
</g>
</svg>
