<svg width="16" height="16" viewBox="0 0 16 16" fill="none" xmlns="http://www.w3.org/2000/svg">
<path d="M11.9703 13.848L13.7603 7.51469C13.7884 7.41553 13.793 7.31123 13.774 7.20997C13.7549 7.10871 13.7126 7.01325 13.6504 6.93108C13.5883 6.84892 13.5079 6.78228 13.4156 6.7364C13.3233 6.69053 13.2217 6.66667 13.1187 6.66669H9.29167C9.23681 6.66669 9.18266 6.65431 9.13325 6.63048C9.08383 6.60665 9.04044 6.57198 9.00628 6.52905C8.97213 6.48611 8.9481 6.43603 8.93599 6.38253C8.92388 6.32902 8.924 6.27347 8.93633 6.22002L9.103 5.49869C9.25567 4.83702 9.30467 4.15535 9.24833 3.47869L9.21767 3.11102C9.18481 2.71658 9.01321 2.34656 8.73333 2.06669C8.47733 1.81062 8.13009 1.66674 7.768 1.66669H7.688C7.469 1.66669 7.26733 1.78535 7.16133 1.97669L6.275 3.57169C5.87766 4.28703 5.28535 4.87482 4.567 5.26669L2.34733 6.47669C2.2421 6.53411 2.1543 6.61885 2.09317 6.72198C2.03205 6.8251 1.99986 6.94281 2 7.06269V13.6667C2 13.8435 2.07024 14.0131 2.19526 14.1381C2.32029 14.2631 2.48986 14.3334 2.66667 14.3334H11.329C11.4742 14.3333 11.6153 14.2859 11.7311 14.1983C11.8469 14.1107 11.9308 13.9877 11.9703 13.848Z" stroke="#11941E" stroke-width="1.5" stroke-linecap="round" stroke-linejoin="round"/>
</svg>
