<svg width="135" height="28" viewBox="0 0 135 28" fill="none" xmlns="http://www.w3.org/2000/svg">
<path d="M98.1959 12.5722C97.3557 11.2354 96.1436 10.5676 94.5588 10.5676C93.4514 10.5676 92.5255 10.9251 91.7809 11.6413C91.0363 12.3575 90.664 13.2495 90.664 14.3187C90.664 15.388 91.0651 16.2807 91.8667 16.9969C92.6687 17.7124 93.6616 18.0707 94.8453 18.0707C95.8382 18.0707 96.6686 17.7936 97.3368 17.2399C98.0046 16.6862 98.4249 15.9322 98.5969 14.9779L102.005 16.8102C101.47 18.4142 100.563 19.6649 99.284 20.5621C98.0046 21.4594 96.5253 21.908 94.8453 21.908C93.2606 21.908 91.8429 21.5785 90.5926 20.9201C89.342 20.2613 88.3729 19.3546 87.6858 18.1996C86.9983 17.0445 86.6547 15.7508 86.6547 14.3187C86.6547 12.906 86.9983 11.6171 87.6858 10.4527C88.3729 9.28819 89.3182 8.37657 90.5208 7.71817C91.7238 7.05902 93.0693 6.72983 94.5588 6.72983C95.7615 6.72983 96.8689 6.94942 97.8807 7.3886C98.8928 7.82778 99.7614 8.45783 100.487 9.27874L98.1959 12.5722ZM111.026 6.72983C113.221 6.72983 114.892 7.2548 116.038 8.30476C117.183 9.35509 117.756 10.8729 117.756 12.8583V21.4783H114.004V19.9034C113.298 20.5334 112.515 21.0248 111.656 21.3785C110.797 21.7315 109.871 21.908 108.878 21.908C107.484 21.908 106.339 21.555 105.442 20.8483C104.544 20.1422 104.096 19.1017 104.096 17.7271C104.096 16.5815 104.625 15.6412 105.685 14.9061C106.744 14.171 108.172 13.6509 109.966 13.3455C111.265 13.1354 112.152 12.9778 112.63 12.8727C113.107 12.7676 113.441 12.6342 113.632 12.4717C113.823 12.3095 113.918 12.0567 113.918 11.7131C113.918 11.2928 113.718 10.9398 113.317 10.6534C112.916 10.3669 112.296 10.2236 111.455 10.2236C110.196 10.2236 109.107 10.4957 108.191 11.04C107.274 11.5843 106.53 12.3523 105.957 13.3455L103.408 10.4243C104.363 9.22167 105.518 8.30476 106.873 7.67509C108.229 7.04504 109.613 6.72983 111.026 6.72983ZM109.422 18.6146C109.995 18.6146 110.639 18.4857 111.355 18.2279C112.071 17.9701 112.682 17.6217 113.188 17.1829C113.694 16.7437 113.947 16.2663 113.947 15.7508V14.9492C113.164 15.3498 112.248 15.6457 111.198 15.837C109.957 16.0849 109.112 16.3427 108.663 16.6103C108.215 16.8775 107.99 17.2018 107.99 17.5835C107.99 17.9271 108.1 18.1848 108.32 18.3568C108.539 18.5288 108.907 18.6146 109.422 18.6146ZM126.232 0V21.4783H122.338V0H126.232ZM134.709 0V21.4783H130.814V0H134.709Z" fill="#1B1918"/>
<path fill-rule="evenodd" clip-rule="evenodd" d="M3.02362 1.29865H80.3974C82.0603 1.29865 83.421 2.65927 83.421 4.32227V24.7948C83.421 26.4578 82.0603 27.8185 80.3974 27.8185H3.02362C1.36063 27.8185 0 26.4578 0 24.7948V4.32227C0 2.65927 1.36063 1.29865 3.02362 1.29865ZM5.9229 16.5789C6.3462 17.2717 6.98117 17.839 7.82778 18.2816C8.67402 18.7242 9.62646 18.9456 10.6847 18.9456C11.3582 18.9456 11.8874 18.8349 12.2721 18.6134C12.6569 18.3923 12.8496 18.099 12.8496 17.7332C12.8496 17.156 11.8394 16.5596 9.81884 15.9439C7.79868 15.309 6.32202 14.6211 5.38885 13.8803C4.45569 13.1395 3.98891 12.2593 3.98891 11.2396C3.98891 10.3737 4.25839 9.61361 4.79735 8.95937C5.33594 8.30513 6.096 7.80019 7.07717 7.44416C8.05833 7.08812 9.1937 6.91049 10.4829 6.91049C12.6569 6.91049 14.5716 7.41052 16.2263 8.41096L15.1007 11.9898C14.2348 11.4319 13.4026 11.0328 12.604 10.7921C11.8057 10.5517 10.9255 10.4315 9.96321 10.4315C8.73184 10.4315 8.11616 10.749 8.11616 11.3839C8.11616 11.6338 8.3229 11.8696 8.73676 12.0911C9.15024 12.3122 9.86721 12.5673 10.8869 12.8557C13.1187 13.4714 14.6774 14.1642 15.5626 14.9337C16.4474 15.7036 16.89 16.5691 16.89 17.5313C16.89 18.4547 16.6205 19.2677 16.0819 19.9699C15.5433 20.6725 14.7878 21.2205 13.8164 21.6151C12.8447 22.0097 11.743 22.2066 10.5116 22.2066C7.35609 22.2066 4.96063 21.0909 3.32523 18.8587L5.9229 16.5789ZM30.5416 12.7979C29.695 11.4512 28.4731 10.7777 26.8762 10.7777C25.7601 10.7777 24.827 11.1386 24.0767 11.8602C23.3261 12.5817 22.9508 13.4812 22.9508 14.5587C22.9508 15.6359 23.3548 16.5354 24.1633 17.2569C24.9713 17.9785 25.9718 18.3394 27.1646 18.3394C28.165 18.3394 29.0022 18.0605 29.6757 17.5022C30.3492 16.9444 30.7725 16.1843 30.9456 15.2224L34.3801 17.0695C33.8411 18.6856 32.9272 19.9461 31.638 20.8501C30.3492 21.7546 28.8578 22.2066 27.1646 22.2066C25.5677 22.2066 24.1391 21.8748 22.8786 21.2111C21.6185 20.5474 20.6419 19.6331 19.9495 18.4694C19.2567 17.3053 18.9105 16.0018 18.9105 14.5587C18.9105 13.1346 19.2567 11.836 19.9495 10.6624C20.6419 9.4885 21.5943 8.5697 22.8068 7.90601C24.0189 7.24233 25.3754 6.91049 26.8762 6.91049C28.0883 6.91049 29.204 7.13159 30.2241 7.57417C31.2438 8.01676 32.1192 8.65172 32.8505 9.47905L30.5416 12.7979ZM43.471 6.91049C45.6839 6.91049 47.3673 7.43962 48.522 8.49751C49.6762 9.55578 50.2534 11.0857 50.2534 13.0866V21.7739H46.4727V20.1865C45.7606 20.8214 44.9718 21.3169 44.106 21.6729C43.2401 22.029 42.3069 22.2066 41.3065 22.2066C39.902 22.2066 38.7473 21.851 37.8433 21.1389C36.9388 20.4268 36.4868 19.3784 36.4868 17.9932C36.4868 16.8386 37.0205 15.891 38.0886 15.1502C39.1563 14.4094 40.5948 13.8852 42.4033 13.5772C43.7117 13.3655 44.6064 13.2068 45.0875 13.101C45.5682 12.9951 45.905 12.8606 46.0974 12.6969C46.2898 12.5333 46.3861 12.2786 46.3861 11.9323C46.3861 11.509 46.1839 11.153 45.7799 10.8643C45.3759 10.5759 44.7507 10.4315 43.9041 10.4315C42.6342 10.4315 41.5374 10.7055 40.6141 11.2539C39.6903 11.8023 38.9401 12.5768 38.3626 13.5772L35.794 10.6333C36.7559 9.42123 37.92 8.49751 39.2863 7.86293C40.6522 7.22797 42.0472 6.91049 43.471 6.91049ZM41.8549 18.8878C42.432 18.8878 43.0813 18.7578 43.8032 18.4981C44.5247 18.2385 45.1404 17.8874 45.6503 17.4448C46.1601 17.0022 46.4149 16.5211 46.4149 16.0018V15.1933C45.6261 15.5977 44.7024 15.8959 43.6445 16.0883C42.3934 16.3381 41.5423 16.5982 41.0899 16.8673C40.6379 17.1368 40.4118 17.4641 40.4118 17.8488C40.4118 18.195 40.5226 18.4547 40.7437 18.6282C40.9652 18.8013 41.3356 18.8878 41.8549 18.8878ZM73.9196 6.91049C75.8631 6.91049 77.3783 7.49707 78.4653 8.67099C79.5523 9.84453 80.0957 11.4512 80.0957 13.4906V21.7739H76.1129V14.3565C76.1129 13.2212 75.8581 12.3458 75.3483 11.7301C74.8384 11.1145 74.0734 10.8064 73.0537 10.8064C71.8995 10.8064 71.0045 11.1432 70.3695 11.8167C69.7345 12.4902 69.4171 13.3368 69.4171 14.3565V21.7739H65.492V14.3565C65.492 13.2212 65.2373 12.3458 64.7274 11.7301C64.2176 11.1145 63.4526 10.8064 62.4329 10.8064C61.2782 10.8064 60.3836 11.1432 59.7487 11.8167C59.1137 12.4902 58.7962 13.3368 58.7962 14.3565V21.7739H54.8712V7.34324H58.7962V8.95937C60.0469 7.59345 61.5383 6.91049 63.2697 6.91049C64.4436 6.91049 65.4584 7.12668 66.3145 7.55981C67.1709 7.99257 67.8588 8.62261 68.3781 9.44995C69.648 7.7571 71.4951 6.91049 73.9196 6.91049Z" fill="#EA1919"/>
</svg>
