<svg width="20" height="20" viewBox="0 0 20 20" fill="none" xmlns="http://www.w3.org/2000/svg">
<path fill-rule="evenodd" clip-rule="evenodd" d="M0.890847 9.69658C2.33585 5.99492 5.73668 3.33325 10 3.33325C14.2633 3.33325 17.6642 5.99492 19.1092 9.69658C19.1854 9.89162 19.1854 10.1082 19.1092 10.3033C17.6642 14.0049 14.2633 16.6666 10 16.6666C5.73668 16.6666 2.33585 14.0049 0.890847 10.3033C0.814623 10.1082 0.814623 9.89162 0.890847 9.69658ZM10 12.4999C10.6631 12.4999 11.2989 12.2365 11.7678 11.7677C12.2366 11.2988 12.5 10.663 12.5 9.99992C12.5 9.33688 12.2366 8.70099 11.7678 8.23215C11.2989 7.76331 10.6631 7.49992 10 7.49992C9.33697 7.49992 8.70109 7.76331 8.23225 8.23215C7.76341 8.70099 7.50001 9.33688 7.50001 9.99992C7.50001 10.663 7.76341 11.2988 8.23225 11.7677C8.70109 12.2365 9.33697 12.4999 10 12.4999Z" fill="white"/>
</svg>
